<!-- ABMeter Logo - Variation 10: Amber Monochrome -->
<!-- All elements use #d97706 (Amber 600) for a unified, bright look -->
<svg version="1.1" xmlns="http://www.w3.org/2000/svg" viewBox="0 0 2048 1365">
<path transform="translate(0,0)" fill="#d97706" d="M 1751.17 980.509 C 1733.77 997.075 1689.67 1012.69 1666.07 1017.22 C 1652.15 1019.76 1638.08 1021.31 1623.95 1021.87 C 1604.75 1022.58 1582.51 1022.04 1563.16 1022.02 L 1459.57 1022.04 L 1365.22 1022.07 C 1353.89 1022.07 1307.15 1023.45 1300.88 1019.18 C 1299.59 1014.5 1298.83 1008.58 1298.81 1003.72 C 1298.71 957.952 1298.73 912.028 1298.69 866.279 L 1298.24 607.441 L 1298.11 408.121 C 1298.09 374.561 1297.97 340.993 1298.24 307.437 C 1298.33 296.556 1304.55 295.233 1314.01 295.221 C 1405 295.097 1496.01 295.044 1587 295.325 C 1626.41 295.446 1667.07 302.377 1701.74 321.929 C 1706.76 324.761 1716.12 329.425 1720.01 333.483 C 1753.83 353.528 1785.08 396.994 1793.8 435.208 C 1814.3 525.005 1785.37 596.798 1704.84 641.223 C 1733.98 652.545 1752.92 663.013 1775.91 684.29 C 1834.45 738.456 1844.11 824.513 1817.6 896.953 C 1806.2 928.126 1779.24 960.906 1751.94 980.193 C 1751.68 980.298 1751.43 980.403 1751.17 980.509 z M 1419.95 914.825 C 1447.36 913.52 1476.83 916.027 1503.76 914.707 C 1552.7 912.31 1639.33 926.097 1677.18 887.349 C 1699.8 865.585 1707.73 846.669 1709.05 815.597 C 1712.54 733.739 1662.21 699.062 1586.99 698.775 C 1532.62 698.567 1474.01 700.106 1419.65 698.695 C 1420.66 770.286 1419.91 843.119 1419.95 914.825 z M 1419.99 590.93 L 1529.41 590.748 C 1574.61 590.897 1611.74 597.639 1649.31 567.124 C 1698.3 517.988 1679.78 420.838 1606.7 408.045 C 1581.84 403.695 1557.51 404.973 1532.39 405.001 L 1430.5 405.108 C 1426.95 405.129 1423.41 405.179 1419.86 405.257 L 1419.99 590.93 z"></path>
<path transform="translate(0,0)" fill="#d97706" d="M 1751.17 980.509 C 1733.77 997.075 1689.67 1012.69 1666.07 1017.22 C 1652.15 1019.76 1638.08 1021.31 1623.95 1021.87 C 1604.75 1022.58 1582.51 1022.04 1563.16 1022.02 L 1459.57 1022.04 L 1365.22 1022.07 C 1353.89 1022.07 1307.15 1023.45 1300.88 1019.18 C 1299.59 1014.5 1298.83 1008.58 1298.81 1003.72 C 1298.71 957.952 1298.73 912.028 1298.69 866.279 L 1298.24 607.441 L 1298.11 408.121 C 1298.09 374.561 1297.97 340.993 1298.24 307.437 C 1298.33 296.556 1304.55 295.233 1314.01 295.221 C 1405 295.097 1496.01 295.044 1587 295.325 C 1626.41 295.446 1667.07 302.377 1701.74 321.929 C 1706.76 324.761 1716.12 329.425 1720.01 333.483 C 1716.18 333.657 1705.89 326.922 1701.73 324.456 C 1669.56 305.43 1629.53 297.704 1592.45 297.606 C 1499.68 297.361 1406.86 297.363 1314.09 297.586 C 1310.71 297.594 1306.48 297.782 1303.31 298.767 C 1300.92 301.003 1300.23 303.006 1300.23 306.372 C 1300.31 338.791 1300.36 371.333 1300.37 403.746 L 1300.4 612.767 L 1300.93 865.582 C 1300.95 914.487 1300.99 963.526 1300.97 1012.44 C 1300.97 1014.55 1301.28 1015.71 1302.32 1017.56 C 1306.64 1021.04 1364.12 1019.76 1374.84 1019.75 L 1493.52 1019.72 L 1577.5 1019.76 C 1628.8 1019.85 1675.88 1021.17 1722.46 995.868 C 1728.46 992.607 1746.17 981.482 1751.17 980.509 z"></path>
<path transform="translate(0,0)" fill="#d97706" d="M 421.694 297.276 C 437.011 296.868 539.653 295.408 548.698 299.011 C 555.905 310.937 570.499 352.753 576.018 367.516 L 624.833 497.286 L 725.436 763.814 L 757.325 848.135 C 763.244 863.848 770.601 882.261 775.501 897.986 C 748.813 915.883 727.432 928.677 707.331 955.053 C 700.642 963.83 695.013 974.887 688.401 983.043 L 687.704 983.892 C 682.726 976.189 666.059 931.46 661.972 919.737 C 654.088 897.121 640.121 865.297 633.714 843.232 L 463.048 843.238 L 332.73 843.23 C 330.213 852.681 324.585 867.032 321.168 876.481 L 299.917 935.209 L 282.539 983.616 C 279.966 990.783 271.001 1021.24 262.945 1021.15 C 245.073 1020.95 158.654 1025.7 147.753 1019.37 C 146.469 1016.08 146.799 1013.75 148.091 1010.44 C 162.707 973.001 176.752 935.11 190.86 897.489 L 292.629 626.293 L 367.911 424.636 C 382.585 385.19 397.21 345.139 412.904 306.071 C 415.399 299.86 415.812 299.537 421.694 297.276 z M 373.216 736.97 C 411.06 736.673 448.905 736.6 486.75 736.752 C 520.082 736.741 562.089 735.494 594.688 736.876 C 555.335 637.234 518.939 534.972 480.633 434.781 L 407.747 640.012 C 397.701 668.331 384.447 710.367 373.216 736.97 z"></path>
<path transform="translate(0,0)" fill="#d97706" d="M 1224.91 106.686 L 1226.4 107.123 C 1228.75 111.716 1228.02 119.755 1228.08 124.975 C 1228.92 196.284 1230.25 267.804 1230.97 339.11 L 1231.89 409.537 C 1231.98 418.564 1232.62 436.277 1231.8 444.855 L 1230.51 445.536 C 1224.63 444.558 1164.94 393.349 1154.33 384.465 C 1151.73 393.34 1146.48 405.924 1143.07 414.793 L 1122.8 467.854 L 1056.93 643.511 L 978.474 853.38 C 965.11 889.46 950.93 931.293 936.36 966.39 C 953.186 987.262 963.133 1012.83 964.832 1039.59 C 966.722 1069.59 958.153 1098.16 940.138 1122.15 C 891.385 1187.09 809.98 1195.5 749.56 1141.75 C 731.534 1125.01 718.703 1103.44 712.597 1079.61 C 692.163 998.417 742.996 933.478 820.936 914.393 C 826.375 898.6 836.678 876.896 843.706 861.184 L 890.43 757.934 L 1072.4 352.638 C 1048.91 350.927 1002.6 348.581 980.862 344.803 C 986.439 337.835 1004.86 320.472 1012.4 313.082 L 1076.2 250.933 L 1154.05 175.29 C 1175.8 153.793 1202.51 126.515 1224.91 106.686 z M 845.085 1085.65 C 867.073 1080.91 881.004 1059.18 876.137 1037.22 C 871.269 1015.26 849.461 1001.46 827.53 1006.45 C 805.777 1011.4 792.108 1033 796.936 1054.78 C 801.764 1076.56 823.276 1090.35 845.085 1085.65 z"></path>
</svg>
