<!-- Generated by SVGMaker - https://svgmaker.io --><!-- Prompt: Could you remove white background? --><!-- Quality: medium --><!-- Type: edit --><!-- Created: 2025-10-17T03:05:41.010Z --><svg version="1.1" xmlns="http://www.w3.org/2000/svg" style="display: block;" viewBox="0 0 2048 2048" width="1024" height="1024" preserveAspectRatio="none">
<defs>
  <style>
    /* Floating bubble animation - calm technical aesthetic */
    @keyframes bubble-float-1 {
      0% {
        transform: translateY(0) scale(1);
        opacity: 1;
      }
      100% {
        transform: translateY(-120px) translateX(15px) scale(1.4);
        opacity: 0;
      }
    }

    @keyframes bubble-float-2 {
      0% {
        transform: translateY(0) scale(1);
        opacity: 1;
      }
      100% {
        transform: translateY(-100px) translateX(-10px) scale(1.3);
        opacity: 0;
      }
    }

    @keyframes bubble-float-3 {
      0% {
        transform: translateY(0) scale(1);
        opacity: 1;
      }
      100% {
        transform: translateY(-90px) translateX(8px) scale(1.25);
        opacity: 0;
      }
    }

    .bubble-1 {
      animation: bubble-float-1 2.5s ease-in-out infinite;
      transform-origin: center;
    }

    .bubble-2 {
      animation: bubble-float-2 2.8s ease-in-out 0.6s infinite;
      transform-origin: center;
    }

    .bubble-3 {
      animation: bubble-float-3 2.3s ease-in-out 1.2s infinite;
      transform-origin: center;
    }
  </style>
</defs>
<path transform="translate(0,0)" fill="#5c2e2a" d="M 835.458 465.941 C 923.782 467.183 1014.33 466.036 1102.86 466.077 L 1204.03 466.119 C 1218.4 466.112 1240.54 466.853 1254.03 465.909 C 1278.64 466.852 1298.81 462.347 1319.91 479.8 C 1331.59 489.447 1338.81 503.462 1339.87 518.576 C 1341.11 535.798 1335.34 552.791 1323.86 565.697 C 1311.18 580.126 1294.8 586.883 1275.9 588.211 L 1275.87 702.507 C 1275.86 716.188 1275.07 745.721 1277.13 758.325 C 1278.05 763.974 1295.32 793.392 1299.35 800.529 L 1339.36 871.613 L 1532.51 1214.89 L 1585.72 1309.62 C 1598.52 1332.43 1613.5 1356.71 1622.77 1381.02 C 1649.75 1451.71 1635.86 1533.12 1579.79 1584.97 C 1554.23 1608.39 1522.3 1623.7 1488.04 1628.98 C 1459.76 1633.24 1396.32 1631.48 1365.12 1631.45 L 1151.59 1631.49 L 769.248 1631.45 L 642.788 1631.52 C 620.514 1631.54 597.791 1632.15 575.786 1631.38 C 460.294 1627.38 391.219 1515.52 416.985 1407.52 C 427.567 1363.17 449.075 1331.83 470.823 1293.01 L 521.503 1201.76 L 707.525 870.484 C 719.969 848.24 732.565 826.08 745.311 804.008 C 750.413 795.133 767.25 766.886 769.474 758.734 C 772.653 747.083 771.158 713.011 771.433 699.143 C 772.156 662.593 770.449 624.47 772.054 588.094 C 766.597 587.834 761.915 587.484 756.51 586.26 C 702.702 574.083 687.561 497.917 740.059 472.073 C 756.384 464.036 773.626 465.889 791.57 465.989 C 806.199 466.159 820.829 466.143 835.458 465.941 z M 1298.85 954.588 C 1287.34 933.603 1275.7 912.682 1263.95 891.827 C 1248.13 864.055 1232.5 836.15 1216.94 808.222 C 1197.93 774.113 1202.13 735.885 1202.22 697.809 L 1202.12 609.662 C 1202.22 576.681 1208.73 563.803 1231.65 541.018 C 1216.14 542.276 1193.67 541.708 1177.84 541.712 L 1071.23 541.693 C 1053.94 541.687 1031.19 540.976 1014.49 541.995 C 968.738 540.404 920.615 542.569 874.694 541.716 C 857.745 541.402 831.921 542.723 815.687 541.067 L 823.926 548.344 C 845.387 570.818 845.11 591.127 844.879 621.045 C 844.565 661.73 844.905 702.517 844.681 743.208 C 844.574 758.918 842.557 776.717 836.278 791.436 C 825.965 813.174 812.308 836.289 800.484 857.432 L 737.788 969.714 L 560.971 1285.45 L 525.224 1350.48 C 511.786 1375.05 495.79 1399.19 489.958 1427.02 C 479.463 1477.11 503.401 1529.79 552.995 1547.44 C 557.911 1549.19 564.019 1550.06 568.626 1551.89 C 589.283 1554.71 609.775 1553.88 630.628 1553.84 L 708.765 1553.75 L 988.323 1553.76 L 1313.52 1553.73 L 1414.09 1553.7 C 1433.37 1553.69 1458.29 1554.38 1476.98 1552.44 C 1489.6 1549.95 1498.71 1547.13 1510.05 1540.6 C 1533.72 1527.08 1550.99 1504.65 1557.99 1478.3 C 1570.91 1429.13 1545.3 1392.76 1522.3 1352.14 L 1479.72 1276.41 L 1379.44 1098.98 C 1363.39 1070.59 1347.15 1040.23 1330.66 1012.34 C 1320.25 992.982 1309.65 973.731 1298.85 954.588 z"></path>
<path transform="translate(0,0)" fill="#dc2626" d="M 1078.95 936.02 C 1098.96 935.301 1123.77 935.671 1143.97 935.792 C 1175.67 936.715 1205.68 932.833 1236.6 941.664 C 1301.38 960.167 1329.26 1023.74 1311.01 1086.39 C 1302.92 1114.18 1285.82 1133.08 1260.65 1146.7 C 1346.68 1172 1349.04 1285.6 1304.44 1348.52 C 1297.22 1358.72 1287.88 1366.52 1278.2 1374.29 C 1222.77 1412.55 1168.68 1404.19 1105.04 1404.8 C 1070.82 1405.12 1035.73 1405.34 1001.6 1404.28 C 1012.76 1345.23 1022.24 1281.98 1031.96 1222.38 L 1078.95 936.02 z M 1103.19 1324.16 C 1137.99 1324.18 1181.94 1328.37 1212.22 1313.05 C 1219.86 1308.14 1224.72 1304.94 1230.15 1297.35 C 1253.05 1265.31 1244.07 1212.02 1199.35 1205.71 C 1174.91 1202.26 1147.22 1203.86 1122.32 1203.96 C 1119.14 1236.86 1109.21 1290.38 1103.19 1324.16 z M 1137.49 1116.15 C 1161.39 1116.18 1186.33 1118.42 1208 1108.22 C 1219.63 1100.82 1228.05 1090.81 1230.29 1077.06 C 1239.95 1017.53 1192.07 1018.93 1153.15 1019.29 C 1148.88 1051.11 1142.69 1084.28 1137.49 1116.15 z"></path>
<path transform="translate(0,0)" fill="#dc2626" d="M 813.186 935.796 C 843.737 936.288 875.302 935.822 906.013 935.963 C 913.407 965.707 920.207 998.82 927.107 1028.93 L 967.435 1205.44 L 982.685 1272.57 C 991.928 1313.82 991.208 1310.29 983.137 1351.63 C 979.564 1369.26 976.346 1386.97 973.485 1404.74 C 957.905 1403.45 940.006 1405.39 923.144 1404.09 C 916.079 1378.85 906.993 1344.22 901.438 1318.8 C 870.884 1319.28 839.149 1318.83 808.5 1318.83 C 794.429 1318.84 771.329 1319.54 758.27 1318.21 C 748.542 1345.07 735.165 1378.17 724.014 1404.66 L 630.908 1404.79 C 634.323 1393.16 645.289 1368.04 650.09 1356 L 687.785 1260.06 L 813.186 935.796 z M 789.252 1234.11 L 829.272 1234.03 L 886.406 1234.05 C 881.685 1218.15 847.438 1074.97 846.224 1073.67 C 833.872 1109.71 821.254 1145.65 808.372 1181.5 C 802.912 1196.73 795.445 1219.47 789.252 1234.11 z"></path>
<path transform="translate(0,0)" fill="#6b3633" d="M 568.626 1551.89 C 589.283 1554.71 609.775 1553.88 630.628 1553.84 L 708.765 1553.75 L 988.323 1553.76 L 1313.52 1553.73 L 1414.09 1553.7 C 1433.37 1553.69 1458.29 1554.38 1476.98 1552.44 L 1476.61 1553.47 C 1468.17 1556.14 1448.03 1555.73 1438.59 1555.81 L 1375.71 1555.95 L 1180.42 1556.04 L 778.683 1556.07 C 715.1 1556.01 651.347 1556 587.759 1555.94 C 582.642 1555.93 572.659 1555.11 568.626 1551.89 z"></path>
<path class="bubble-1" transform="translate(0,0)" fill="#dc2626" d="M 1139.12 235.262 C 1186.09 228.634 1229.57 261.274 1236.31 308.23 C 1243.05 355.187 1210.52 398.741 1163.58 405.596 C 1116.48 412.474 1072.74 379.803 1065.98 332.686 C 1059.21 285.569 1091.99 241.913 1139.12 235.262 z"></path>
<path class="bubble-2" transform="translate(0,0)" fill="#dc2626" d="M 953.081 131.012 C 994.197 126.052 1031.52 155.433 1036.36 196.565 C 1041.19 237.696 1011.69 274.931 970.549 279.64 C 929.58 284.328 892.541 254.987 887.727 214.033 C 882.914 173.079 912.141 135.95 953.081 131.012 z"></path>
<path class="bubble-3" transform="translate(0,0)" fill="#dc2626" d="M 929.484 336.339 C 952.222 332.667 973.624 348.148 977.254 370.893 C 980.883 393.638 965.363 415.011 942.611 418.599 C 919.919 422.177 898.614 406.706 894.994 384.02 C 891.374 361.334 906.805 340.001 929.484 336.339 z"></path>
</svg>
